<?xml version="1.0" encoding="UTF-8"?>
<!DOCTYPE svg  PUBLIC '-//W3C//DTD SVG 1.1//EN'  'http://www.w3.org/Graphics/SVG/1.1/DTD/svg11.dtd'>
<svg clip-rule="evenodd" fill-rule="evenodd" stroke-linejoin="round" stroke-miterlimit="2" version="1.1" viewBox="0 0 494 343" xml:space="preserve" xmlns="http://www.w3.org/2000/svg">
    <g transform="translate(-63.744 -57.093)">
        <g transform="matrix(1 0 0 -1 -184.71 927.97)">
            
                <g transform="translate(47.114 436.25)">
                    <g transform="matrix(-2.5674e-16 9.4447 -9.4447 -2.5674e-16 494.4 127.98)">
                        <path d="m15.258 26.865c0.029 1.085-0.379 2.136-1.133 2.917-0.753 0.777-1.79 1.217-2.872 1.218-1.082 0-2.12-0.44-2.872-1.218-0.755-0.78-1.164-1.832-1.133-2.917 9e-3 -0.698 0.2-1.382 0.557-1.981 0.356-0.6 0.863-1.094 1.47-1.433-0.024 0.109 0.09-0.055 0 0l1.86-1.652c1.474-1.569 2.298-3.64 2.304-5.793 0-2.926-1.711-5.901-4.17-7.457 0.094 0.055-0.036-0.094 0 0-0.607-0.34-1.114-0.834-1.469-1.433-0.356-0.6-0.548-1.283-0.557-1.98-0.03-1.085 0.379-2.137 1.133-2.918 0.753-0.777 1.789-1.216 2.871-1.218 1.083-1e-3 2.12 0.439 2.872 1.218 0.755 0.779 1.164 1.832 1.133 2.917 0.01 2.171 0.85 4.259 2.347 5.832l0.817 0.8c0.326 0.285 0.668 0.551 1.024 0.798 0.621 0.33 1.142 0.826 1.504 1.431s0.554 1.298 0.554 2.003c0 1.436-0.793 2.76-2.058 3.439 0.033-0.067-0.063 0.036 0 0-1.256 0.794-2.295 1.888-3.024 3.183-0.73 1.297-1.128 2.756-1.158 4.244z" fill-rule="nonzero"/>
                    </g>
                    <g transform="matrix(-2.5674e-16 9.4447 -9.4447 -2.5674e-16 704.28 128.08)">
                        <path d="m15.258 26.865c0.029 1.085-0.379 2.136-1.133 2.917-0.753 0.777-1.79 1.217-2.872 1.218-1.082 0-2.12-0.44-2.872-1.218-0.755-0.78-1.164-1.832-1.133-2.917 9e-3 -0.698 0.2-1.382 0.557-1.981 0.356-0.6 0.863-1.094 1.47-1.433-0.024 0.109 0.09-0.055 0 0l1.86-1.652c1.474-1.569 2.298-3.64 2.304-5.793 0-2.926-1.711-5.901-4.17-7.457 0.094 0.055-0.036-0.094 0 0-0.607-0.34-1.114-0.834-1.469-1.433-0.356-0.6-0.548-1.283-0.557-1.98-0.03-1.085 0.379-2.137 1.133-2.918 0.753-0.777 1.789-1.216 2.871-1.218 1.083-1e-3 2.12 0.439 2.872 1.218 0.755 0.779 1.164 1.832 1.133 2.917 0.01 2.171 0.85 4.259 2.347 5.832l0.817 0.8c0.326 0.285 0.668 0.551 1.024 0.798 0.621 0.33 1.142 0.826 1.504 1.431s0.554 1.298 0.554 2.003c0 1.436-0.793 2.76-2.058 3.439 0.033-0.067-0.063 0.036 0 0-1.256 0.794-2.295 1.888-3.024 3.183-0.73 1.297-1.128 2.756-1.158 4.244z" fill-rule="nonzero"/>
                    </g>
                </g>
                <g transform="matrix(1.8023e-15 9.3995 -9.4447 1.7882e-15 541.24 668.81)">
                    <path d="m15.258 26.865c0.029 1.085-0.379 2.136-1.133 2.917-0.753 0.777-1.79 1.217-2.872 1.218-1.082 0-2.12-0.44-2.872-1.218-0.755-0.78-1.164-1.832-1.133-2.917 9e-3 -0.698 0.2-1.382 0.557-1.981 0.356-0.6 0.863-1.094 1.47-1.433-0.024 0.109 0.09-0.055 0 0l1.86-1.652c1.474-1.569 2.298-3.64 2.304-5.793 0-2.926-1.711-5.901-4.17-7.457 0.094 0.055-0.036-0.094 0 0-0.607-0.34-1.114-0.834-1.469-1.433-0.356-0.6-0.548-1.283-0.557-1.98-0.03-1.085 0.379-2.137 1.133-2.918 0.753-0.777 1.789-1.216 2.871-1.218 1.083-1e-3 2.12 0.439 2.872 1.218 0.755 0.779 1.164 1.832 1.133 2.917 0.01 2.171 0.85 4.259 2.347 5.832l0.817 0.8c0.326 0.285 0.668 0.551 1.024 0.798 0.621 0.33 1.142 0.826 1.504 1.431s0.554 1.298 0.554 2.003c0 1.436-0.793 2.76-2.058 3.439 0.033-0.067-0.063 0.036 0 0-1.256 0.794-2.295 1.888-3.024 3.183-0.73 1.297-1.128 2.756-1.158 4.244z" fill-rule="nonzero"/>
                </g>
                <g transform="matrix(1.8023e-15 9.3995 -9.4447 1.7882e-15 750.33 460.56)">
                    <path d="m15.258 26.865c0.029 1.085-0.379 2.136-1.133 2.917-0.753 0.777-1.79 1.217-2.872 1.218-1.082 0-2.12-0.44-2.872-1.218-0.755-0.78-1.164-1.832-1.133-2.917 9e-3 -0.698 0.2-1.382 0.557-1.981 0.356-0.6 0.863-1.094 1.47-1.433-0.024 0.109 0.09-0.055 0 0l1.86-1.652c1.474-1.569 2.298-3.64 2.304-5.793 0-2.926-1.711-5.901-4.17-7.457 0.094 0.055-0.036-0.094 0 0-0.607-0.34-1.114-0.834-1.469-1.433-0.356-0.6-0.548-1.283-0.557-1.98-0.03-1.085 0.379-2.137 1.133-2.918 0.753-0.777 1.789-1.216 2.871-1.218 1.083-1e-3 2.12 0.439 2.872 1.218 0.755 0.779 1.164 1.832 1.133 2.917 0.01 2.171 0.85 4.259 2.347 5.832l0.817 0.8c0.326 0.285 0.668 0.551 1.024 0.798 0.621 0.33 1.142 0.826 1.504 1.431s0.554 1.298 0.554 2.003c0 1.436-0.793 2.76-2.058 3.439 0.033-0.067-0.063 0.036 0 0-1.256 0.794-2.295 1.888-3.024 3.183-0.73 1.297-1.128 2.756-1.158 4.244z" fill-rule="nonzero"/>
                </g>
                <g transform="translate(-350.93 78.148)">
                    <circle cx="741.06" cy="551.61" r="32.867" fill-rule="nonzero"/>
                </g>
            
            <g transform="translate(-141.84 268.02)">
                <circle cx="741.06" cy="551.61" r="32.867" fill-rule="nonzero"/>
            </g>
        </g>
    </g>
</svg>
