<?xml version="1.0" encoding="UTF-8" standalone="no"?>
<!DOCTYPE svg PUBLIC "-//W3C//DTD SVG 1.1//EN" "http://www.w3.org/Graphics/SVG/1.1/DTD/svg11.dtd">
<svg width="100%" height="100%" viewBox="0 0 494 343" version="1.1" xmlns="http://www.w3.org/2000/svg" xmlns:xlink="http://www.w3.org/1999/xlink" xml:space="preserve" xmlns:serif="http://www.serif.com/" style="fill-rule:evenodd;clip-rule:evenodd;stroke-linejoin:round;stroke-miterlimit:2;">
    <g transform="matrix(1,0,0,1,-63.7444,-57.0926)">
        <g transform="matrix(1,0,0,1,-184.714,-471.53)">
            <g>
                <g transform="matrix(1,0,0,1,47.1141,436.254)">
                    <g transform="matrix(-2.56739e-16,9.44472,-9.44472,-2.56739e-16,494.402,127.982)">
                        <path d="M15.258,26.865C15.287,27.95 14.879,29.001 14.125,29.782C13.372,30.559 12.335,30.999 11.253,31C10.171,31 9.133,30.56 8.381,29.782C7.626,29.002 7.217,27.95 7.248,26.865C7.257,26.167 7.448,25.483 7.805,24.884C8.161,24.284 8.668,23.79 9.275,23.451C9.251,23.56 9.365,23.396 9.275,23.451L11.135,21.799C12.609,20.23 13.433,18.159 13.439,16.006C13.439,13.08 11.728,10.105 9.269,8.549C9.363,8.604 9.233,8.455 9.269,8.549C8.662,8.209 8.155,7.715 7.8,7.116C7.444,6.516 7.252,5.833 7.243,5.136C7.213,4.051 7.622,2.999 8.376,2.218C9.129,1.441 10.165,1.002 11.247,1C12.33,0.999 13.367,1.439 14.119,2.218C14.874,2.997 15.283,4.05 15.252,5.135C15.262,7.306 16.102,9.394 17.599,10.967L18.416,11.767C18.742,12.052 19.084,12.318 19.44,12.565C20.061,12.895 20.582,13.391 20.944,13.996C21.306,14.601 21.498,15.294 21.498,15.999C21.498,17.435 20.705,18.759 19.44,19.438C19.473,19.371 19.377,19.474 19.44,19.438C18.184,20.232 17.145,21.326 16.416,22.621C15.686,23.918 15.288,25.377 15.258,26.865Z" />
                    </g>
                    <g transform="matrix(-2.56739e-16,9.44472,-9.44472,-2.56739e-16,704.275,128.082)">
                        <path d="M15.258,26.865C15.287,27.95 14.879,29.001 14.125,29.782C13.372,30.559 12.335,30.999 11.253,31C10.171,31 9.133,30.56 8.381,29.782C7.626,29.002 7.217,27.95 7.248,26.865C7.257,26.167 7.448,25.483 7.805,24.884C8.161,24.284 8.668,23.79 9.275,23.451C9.251,23.56 9.365,23.396 9.275,23.451L11.135,21.799C12.609,20.23 13.433,18.159 13.439,16.006C13.439,13.08 11.728,10.105 9.269,8.549C9.363,8.604 9.233,8.455 9.269,8.549C8.662,8.209 8.155,7.715 7.8,7.116C7.444,6.516 7.252,5.833 7.243,5.136C7.213,4.051 7.622,2.999 8.376,2.218C9.129,1.441 10.165,1.002 11.247,1C12.33,0.999 13.367,1.439 14.119,2.218C14.874,2.997 15.283,4.05 15.252,5.135C15.262,7.306 16.102,9.394 17.599,10.967L18.416,11.767C18.742,12.052 19.084,12.318 19.44,12.565C20.061,12.895 20.582,13.391 20.944,13.996C21.306,14.601 21.498,15.294 21.498,15.999C21.498,17.435 20.705,18.759 19.44,19.438C19.473,19.371 19.377,19.474 19.44,19.438C18.184,20.232 17.145,21.326 16.416,22.621C15.686,23.918 15.288,25.377 15.258,26.865Z" />
                    </g>
                </g>
                <g transform="matrix(1.80234e-15,9.39949,-9.44472,1.78818e-15,541.244,668.808)">
                    <path d="M15.258,26.865C15.287,27.95 14.879,29.001 14.125,29.782C13.372,30.559 12.335,30.999 11.253,31C10.171,31 9.133,30.56 8.381,29.782C7.626,29.002 7.217,27.95 7.248,26.865C7.257,26.167 7.448,25.483 7.805,24.884C8.161,24.284 8.668,23.79 9.275,23.451C9.251,23.56 9.365,23.396 9.275,23.451L11.135,21.799C12.609,20.23 13.433,18.159 13.439,16.006C13.439,13.08 11.728,10.105 9.269,8.549C9.363,8.604 9.233,8.455 9.269,8.549C8.662,8.209 8.155,7.715 7.8,7.116C7.444,6.516 7.252,5.833 7.243,5.136C7.213,4.051 7.622,2.999 8.376,2.218C9.129,1.441 10.165,1.002 11.247,1C12.33,0.999 13.367,1.439 14.119,2.218C14.874,2.997 15.283,4.05 15.252,5.135C15.262,7.306 16.102,9.394 17.599,10.967L18.416,11.767C18.742,12.052 19.084,12.318 19.44,12.565C20.061,12.895 20.582,13.391 20.944,13.996C21.306,14.601 21.498,15.294 21.498,15.999C21.498,17.435 20.705,18.759 19.44,19.438C19.473,19.371 19.377,19.474 19.44,19.438C18.184,20.232 17.145,21.326 16.416,22.621C15.686,23.918 15.288,25.377 15.258,26.865Z" />
                </g>
                <g transform="matrix(1.80234e-15,9.39949,-9.44472,1.78818e-15,750.334,460.556)">
                    <path d="M15.258,26.865C15.287,27.95 14.879,29.001 14.125,29.782C13.372,30.559 12.335,30.999 11.253,31C10.171,31 9.133,30.56 8.381,29.782C7.626,29.002 7.217,27.95 7.248,26.865C7.257,26.167 7.448,25.483 7.805,24.884C8.161,24.284 8.668,23.79 9.275,23.451C9.251,23.56 9.365,23.396 9.275,23.451L11.135,21.799C12.609,20.23 13.433,18.159 13.439,16.006C13.439,13.08 11.728,10.105 9.269,8.549C9.363,8.604 9.233,8.455 9.269,8.549C8.662,8.209 8.155,7.715 7.8,7.116C7.444,6.516 7.252,5.833 7.243,5.136C7.213,4.051 7.622,2.999 8.376,2.218C9.129,1.441 10.165,1.002 11.247,1C12.33,0.999 13.367,1.439 14.119,2.218C14.874,2.997 15.283,4.05 15.252,5.135C15.262,7.306 16.102,9.394 17.599,10.967L18.416,11.767C18.742,12.052 19.084,12.318 19.44,12.565C20.061,12.895 20.582,13.391 20.944,13.996C21.306,14.601 21.498,15.294 21.498,15.999C21.498,17.435 20.705,18.759 19.44,19.438C19.473,19.371 19.377,19.474 19.44,19.438C18.184,20.232 17.145,21.326 16.416,22.621C15.686,23.918 15.288,25.377 15.258,26.865Z" />
                </g>
                <g transform="matrix(1,0,0,1,-350.932,78.1484)">
                    <circle cx="741.061" cy="551.607" r="32.867" />
                </g>
            </g>
            <g transform="matrix(1,0,0,1,-141.842,268.015)">
                <circle cx="741.061" cy="551.607" r="32.867"/>
            </g>
        </g>
    </g>
</svg>
